<?xml version="1.0" encoding="utf-8"?>
<svg width="159" height="114" viewBox="0 0 159 114" xmlns="http://www.w3.org/2000/svg">
  <svg id="amex" data-name="Layer 1" width="40" height="30" viewBox="0 0 50 37" xmlns="http://www.w3.org/2000/svg">
    <defs>
      <style>.acls-1{fill:#fff}.acls-2{fill:#079cd9}</style>
    </defs>
    <title>Artboard 9 copy 2</title>
    <g id="a_Group_" data-name="Group">
      <g id="a_Group_2" data-name="Group 2">
        <path id="a_Path_" data-name="Path" class="acls-1" d="M-.29-6.72h50v37h-50z"/>
      </g>
      <path id="a_Compound_Path_" data-name="Compound Path" class="acls-2" d="M15.86 26.59h-3.47v-1.17h3.09v-1.2h-3.09v-1.07h3.54l1.55 1.72-1.61 1.73m3.43-1.71l2.16-2.33v4.73zm5.41-.25h-1.84v-1.49h1.84c.51 0 .86.21.86.72s-.34.77-.87.77zm6.88-.29a1.34 1.34 0 0 1-.69.12h-1.74v-1.32h1.74a1.53 1.53 0 0 1 .67.1.58.58 0 0 1 .29.53.63.63 0 0 1-.28.57zm-6.87-2.43H20.2l-1.8 1.94-1.73-1.94H11v5.91h5.6l1.8-2 1.74 2h2.76v-2h1.76c1.23 0 2.46-.34 2.46-2s-1.26-1.91-2.38-1.91zm8 .29a3.29 3.29 0 0 0-1.7-.29h-3.25v5.91h1.41v-2.16h1.52c.51 0 .82 0 1 .26a1.74 1.74 0 0 1 .23 1.15v.75h1.42v-1.17a1.69 1.69 0 0 0-.23-1.07 1.56 1.56 0 0 0-.7-.5 1.65 1.65 0 0 0 1-1.57 1.37 1.37 0 0 0-.71-1.31zM39 26.6h-3.3v-1.18h3.23v-1.2h-3.3v-1.07h3.3v-1.24h-4.71v5.91h4.72zm5.39-1.89a2.21 2.21 0 0 0-1.63-.43H42a1.75 1.75 0 0 1-.54-.07.45.45 0 0 1-.31-.44.46.46 0 0 1 .21-.42 1 1 0 0 1 .57-.1h2.59v-1.34h-2.89a1.76 1.76 0 0 0-2 1.76c0 1.88 1.66 1.8 3 1.83a.75.75 0 0 1 .49.14.49.49 0 0 1 .17.39.53.53 0 0 1-.17.39.83.83 0 0 1-.57.14h-2.78v1.27h2.75c1.43 0 2.22-.61 2.22-1.86a1.62 1.62 0 0 0-.42-1.26zm6 1.25c0 1.26-.79 1.86-2.22 1.86h-2.85v-1.25H48a.83.83 0 0 0 .57-.14.53.53 0 0 0 .17-.39.49.49 0 0 0-.17-.39.75.75 0 0 0-.49-.14c-1.32 0-3 0-3-1.83a1.75 1.75 0 0 1 2-1.76H50v1.27h-2.61a1 1 0 0 0-.56.1.46.46 0 0 0-.21.42.45.45 0 0 0 .31.44 1.75 1.75 0 0 0 .54.07h.76a2.2 2.2 0 0 1 1.61.48 1.63 1.63 0 0 1 .43 1.3z"/>
      <g id="a_Group_3" data-name="Group 3">
        <path id="a_Compound_Path_2" data-name="Compound Path 2" class="acls-2" d="M2.31 15.1l1-2.35 1 2.35h-2m23.22-.93a1.34 1.34 0 0 1-.69.12h-1.72V13h1.74a1.49 1.49 0 0 1 .67.1.57.57 0 0 1 .29.53.63.63 0 0 1-.29.54zm12.24.93l-1-2.35-1 2.35zM15 11.74h-2.39l-1.7 4-1.84-4h-2.3v5.6l-2.39-5.6H2.25l-2.48 5.92h1.49l.51-1.32h3l.54 1.32h2.85V13l2.05 4.64h1.24L13.5 13v4.63H15zm5.8 4.69h-3.38v-1.15h3.23V14h-3.23v-1h3.35v-1.26H16v5.92h4.76zM26.7 12a3.29 3.29 0 0 0-1.7-.29h-3.29v5.92h1.41v-2.12h1.52c.51 0 .83 0 1 .26a1.73 1.73 0 0 1 .23 1.15v.75h1.42v-1.18a1.69 1.69 0 0 0-.23-1.07 1.59 1.59 0 0 0-.69-.5 1.66 1.66 0 0 0 1-1.57 1.37 1.37 0 0 0-.71-1.35zm1.54 5.63h1.45v-5.89H28.2zm18.17 0h-2l-2.67-4.43v4.43h-3l-.54-1.32h-2.9l-.56 1.31h-1.6a3 3 0 0 1-2-.66 3 3 0 0 1-.75-2.26 3.15 3.15 0 0 1 .76-2.31 2.88 2.88 0 0 1 2.15-.69h1.3V13h-1.32a1.35 1.35 0 0 0-1.09.35 1.9 1.9 0 0 0-.42 1.34 2 2 0 0 0 .4 1.39 1.34 1.34 0 0 0 1 .3h.6l2-4.65h2.1l2.39 5.6v-5.6h2.16l2.49 4.12v-4.11h1.46z"/>
        <path id="a_Path_2" data-name="Path 2" class="acls-2" d="M 50 20.75 L 47.34 20.75 C 46.714 20.721 46.095 20.889 45.57 21.23 L 45.57 20.75 L 41.71 20.75 C 41.109 20.722 40.516 20.89 40.02 21.23 L 40.02 20.75 L 33.12 20.75 L 33.12 21.23 C 32.537 20.903 31.878 20.737 31.21 20.75 L 26.66 20.75 L 26.66 21.23 C 26.065 20.854 25.361 20.685 24.66 20.75 L 19.57 20.75 L 18.4 22 L 17.31 20.73 L 9.7 20.73 L 9.7 29 L 17.17 29 L 18.37 27.71 L 19.5 29 L 24.1 29 L 24.1 27.06 L 24.56 27.06 C 25.24 27.103 25.921 27.004 26.56 26.77 L 26.56 29 L 30.37 29 L 30.37 26.83 L 30.56 26.83 C 30.79 26.83 30.81 26.83 30.81 27.07 L 30.81 29 L 42.3 29 C 42.981 29.028 43.655 28.846 44.23 28.48 L 44.23 29 L 47.89 29 C 48.613 29.024 49.333 28.891 50 28.61 L 50 43.71 L -0.29 43.71 L -0.29 18.83 L 2.12 18.83 L 2.67 17.51 L 3.88 17.51 L 4.42 18.83 L 9.18 18.83 L 9.18 17.83 L 9.61 18.83 L 12.07 18.83 L 12.5 17.83 L 12.5 18.83 L 24.28 18.83 L 24.28 16.66 L 24.51 16.66 C 24.68 16.66 24.72 16.66 24.72 16.94 L 24.72 18.81 L 30.82 18.81 L 30.82 18.28 C 31.52 18.634 32.296 18.809 33.08 18.79 L 35.65 18.79 L 36.2 17.47 L 37.42 17.47 L 38 18.8 L 42.9 18.8 L 42.9 17.58 L 43.66 18.83 L 47.66 18.83 L 47.66 10.59 L 43.66 10.59 L 43.66 11.59 L 43.1 10.59 L 39.1 10.59 L 39.1 11.59 L 38.6 10.59 L 33.19 10.59 C 32.376 10.547 31.565 10.708 30.83 11.06 L 30.83 10.59 L 27.07 10.59 L 27.07 11.06 C 26.61 10.716 26.042 10.549 25.47 10.59 L 11.77 10.59 L 10.84 12.72 L 9.9 10.59 L 5.58 10.59 L 5.58 11.59 L 5.09 10.59 L 1.41 10.59 L -0.29 14.5 L -0.29 -6.72 L 50 -6.72 L 50 20.75"/>
      </g>
    </g>
  </svg>
  <svg id="bankslip" data-name="Layer 1" width="40" height="30" viewBox="0 0 50 37" x="80" y="60" xmlns="http://www.w3.org/2000/svg" style="" transform="matrix(1.294853925704956, 0, 0, 1.2431812286376953, 28.889823019504547, 27.35818099975586)">
    <defs>
      <style>.bcls-1{fill:#1d1d1b}</style>
    </defs>
    <title>Artboard 9 copy 6</title>
    <path class="bcls-1" d="M16.34 8.73h.46v18.49h-.46zm1.51 0h.46v18.49h-.46zm4.24 0h.46v18.49h-.46zm6.57 0h.46v18.49h-.46zm6.99 0h.46v18.49h-.46zm1 0h.46v18.49h-.46zm3.72 0h.46v20.13h-.46zm.75 0h.46v20.13h-.46zm-30.53 0h.46v20.13h-.46zm-.75 0h.46v20.13h-.46zm2.02 0h1.45v18.49h-1.45zm2.3 0h.94v18.49h-.94zm9.24 0h1.13v18.49H23.4zm7.31 0h1.13v18.49h-1.13zm7.73 0h1.13v18.49h-1.13zm-19.3 0h1.63v18.49h-1.63zm6.38 0h1.63v18.49h-1.63zm7.2 0h1.63v18.49h-1.63z"/>
    <path class="bcls-1" d="M44.27 29.21a2 2 0 0 1-2 2H9.2a2 2 0 0 1-2-2V8.39a2 2 0 0 1 2-2h33a2 2 0 0 1 2 2zm1.36-20.82A3.42 3.42 0 0 0 42.22 5H9.2a3.42 3.42 0 0 0-3.41 3.39v20.82a3.41 3.41 0 0 0 3.41 3.41h33a3.42 3.42 0 0 0 3.41-3.41z"/>
  </svg>
  <svg version="1" id="diners" width="40" height="30" viewBox="0 0 50 37" x="40" xmlns="http://www.w3.org/2000/svg" style="" transform="matrix(1.294853925704956, 0, 0, 1.2431812286376953, 14.147131025791168, 9.119586944580078)">
    <style>.cst0{fill:#1a1919}.cst1{fill:#154a74}</style>
    <title>Artboard 9</title>
    <path class="cst0" d="M26.2 31.8c0-.1-.1-.3-.1-.4l-.7-2v-.1c-.1 0-.2.1-.3.2 0 .2-.1.3-.2.5l-.6 1.7c-.1.2-.2.2-.3.2v.1h.9v-.1h-.1c-.1 0-.3 0-.3-.1s0-.2.1-.3l.1-.4h.8l.1.4c0 .1.1.2.1.3 0 .1-.1.1-.2.1h-.1v.1h1.1v-.1c-.2 0-.2 0-.3-.1zm.3.3h-1.1V32c.1 0 .2 0 .2-.1 0 0 0-.2-.1-.3l-.1-.4h-.9l-.1.4c0 .1-.1.2-.1.3 0 .1.2.1.3.1v.1h-.9V32c.1 0 .3-.1.3-.2l.6-1.7c0-.1.1-.3.1-.5.1 0 .3-.1.3-.2v.1l.7 2c0 .1.1.3.1.4 0 .1.1.2.3.2zm2.5-2.7h1.1v.1c-.1 0-.3 0-.3.2v2c0 .2.2.2.3.2v.1H29c.1 0 .3 0 .3-.2v-2c0-.3-.2-.3-.3-.4zm-4 .4l-.4 1.1h.7l-.3-1.1zm-.3 1.1l.3-1 .3 1h-.6zm4-1.6v.6h-.1c0-.1 0-.4-.3-.4h-.6v2c0 .3.1.3.3.3h.1v.2h-1.2.1c.2 0 .3 0 .3-.3v-2h-.6c-.3 0-.3.1-.4.3h-.1v-.6h.1c0 .1.1.1.2.1h2c.1-.1.2-.1.2-.2zm2.1-1.3c-1.6 0-2.7-1.1-2.7-2.6 0-1.4 1.3-2.5 2.6-2.5.6 0 1.1.2 1.6.4l.1 1h-.2c-.1-.8-.7-1.1-1.5-1.1s-2 .5-2 2.2c0 1.4 1 2.4 2.1 2.4.7 0 1.3-.5 1.4-1.2h.2l-.2 1c-.1.2-.9.4-1.4.4zm-6.9 1.5v-.1h-1v.1h.1c.1 0 .3 0 .3.3v1.4l-1.7-1.9h-.7v.1h.1c.2 0 .3.1.3.3v1.6c0 .3-.1.5-.3.5h-.1v.1h1v-.1h-.1c-.3 0-.3-.1-.3-.4V30l1.9 2.1h.2V30c-.1-.4 0-.5.3-.5zm-.5.5v2.1h-.1l-2-2.2v1.6c0 .3.1.4.4.4h.1v.1h-1v-.1h.1c.3 0 .3-.2.3-.5v-1.6c0-.2-.2-.3-.3-.3v-.1h.7l1.7 1.9v-1.4c0-.3-.2-.4-.3-.4h-.1v-.1h1v.1h-.1c-.2 0-.4 0-.4.5zm5.3-.7c0 .1-.1.1-.2.1h-2c-.1 0-.2 0-.2-.1h-.1v.6h.1c.1-.3.1-.3.3-.3h.6v2c0 .3-.1.3-.3.3h-.1v.1H28v-.1h-.1c-.2 0-.3 0-.3-.3v-2h.6c.2 0 .3.2.3.3h.1v-.6h.1zm.1.3v.3h-.1c0-.1 0-.4-.3-.4h-.6v2c0 .3.1.3.3.3h.1v.1H27v-.1h.1c.2 0 .3 0 .3-.3v-2h-.6c-.3 0-.3.1-.4.3h-.1v-.6h.1c0 .1.1.1.2.1h2c.1 0 .2 0 .2-.1h.1c-.1.2-.1.3-.1.4zm-2.6 2.2c-.1-.1-.1-.3-.1-.4l-.7-2v-.1c-.1 0-.2.1-.3.2 0 .1-.1.3-.1.5l-.6 1.7c-.3.2-.4.3-.6.3h.8c-.1 0-.3 0-.3-.2 0-.1 0-.2.1-.3l.1-.4h.9l.2.5c0 .1.1.2.1.3 0 .1-.2.1-.3.1h1.1c-.2 0-.3-.1-.3-.2zm-1.6-.9l.4-1.1.4 1.1h-.8zm-5.5-1.4h-.2v1.1h.2c.4 0 .6-.1.6-.6 0-.2-.2-.5-.6-.5zm0 1.2h-.2v-1.1h.2c.3 0 .5.2.5.5.1.4-.1.6-.5.6zm-.3-2.8h-1.5v-.2h.1c.2 0 .3 0 .3-.2v-1.8c0-.4-.2-.6-.6-.6-.2 0-.6.2-.8.3v2.1c0 .2.2.2.4.2h.1v.2h-1.5v-.2h.1c.2 0 .3 0 .3-.2v-1.9c0-.3-.1-.3-.4-.5V25l.9-.3v.6c.4-.3.7-.5 1.2-.5.6 0 .8.4.8 1v1.8c0 .2.2.2.3.2h.1v.1zm1.5 3.8l-.7-1c.3-.1.5-.3.5-.7 0-.5-.4-.6-.9-.7H18v.1h.1c.1 0 .3 0 .3.3v1.9c0 .2-.1.2-.3.2H18v.2h1.1-.1c-.2 0-.3 0-.3-.3v-.8h.3c.2.4.5.8.8 1.2h.8V32c-.1-.1-.2-.1-.3-.3zm-1.2-1h-.2v-1.2h.2c.3 0 .6.2.6.6 0 .4-.2.6-.6.6zm1.2 1l-.6-1c.3-.1.5-.3.5-.7 0-.5-.4-.7-.9-.7h-1.2v.1h.1c.1 0 .2 0 .3.3v1.9c0 .1-.1.2-.3.2h-.1v.1h1.2v-.1h-.1c-.2 0-.3 0-.3-.3v-.8h.2c.2.4.5.8.8 1.2h.8v-.1c-.2.1-.3.1-.4-.1zm.4.4h-.8c-.3-.4-.5-.8-.8-1.2h-.2v.8c0 .3.1.3.3.3h.1v.1H18V32h.1c.1 0 .3-.1.3-.2v-1.9c0-.3-.2-.3-.3-.3H18v-.1h1.2c.5 0 .9.1.9.7 0 .3-.2.5-.5.7l.6 1c.1.2.2.2.4.2zm-2.9-.7c-.1.4-.3.5-.8.5-.2 0-.4 0-.4-.2v-.9h.4c.3 0 .3.1.3.4h.1v-.8h-.1c0 .2-.1.3-.3.3h-.4v-1h.5c.4 0 .4.2.4.4h.1V29.5h-1.9v.1h.1c.1 0 .3 0 .3.2v2c0 .2-.1.2-.3.2h-.1v.1h2c0-.2.1-.4.1-.6v-.1zm0 .7h-2V32h.1c.1 0 .3 0 .3-.2v-2c0-.2-.1-.2-.3-.2h-.1v-.1h1.9v.6h-.1c0-.2-.1-.4-.5-.4h-.5v1h.4c.2 0 .3-.1.3-.3h.1v.8h-.1c0-.2 0-.4-.3-.4h-.5v.9c0 .2.2.2.5.2.5 0 .7 0 .8-.5h.1c0 .3-.1.5-.1.7zm5.6-2.7h.5v.1c-.2 0-.4 0-.4.5v2.1h-.1l-2-2.2v1.6c0 .3.1.5.4.5h-1c.3 0 .4-.2.4-.5v-1.6c0-.2-.2-.4-.4-.4v-.1h.7l1.7 1.9v-1.4c0-.3-.2-.4-.3-.4h-.1v-.1h.6zm-.2 1.9zm6.3-1.9h-.6v.1h.1c.1 0 .3 0 .3.2v2c0 .2-.1.2-.3.2h-.1v.1h1.2v-.1H30c-.1 0-.3 0-.3-.2v-2c0-.2.1-.2.3-.2h.1v-.1h-.6zm.6.1c-.2 0-.3 0-.3.2v2c0 .2.1.2.3.2h.1v.1H29v-.1c.1 0 .3 0 .3-.2v-2c0-.2-.1-.2-.3-.2v-.1h1.2v.1zm10.8 2.2c.1-.1.1-.2.1-.3h.1c0 .2-.1.4-.1.6h-2c.1 0 .3 0 .3-.3v-2c0-.2-.2-.2-.3-.2v-.1h1.2v.1h-.1c-.1 0-.3 0-.3.2v2c0 .2.1.2.2.2h.5c.2 0 .4-.1.4-.2zm-2.3.1c0-.1-.1-.3-.1-.4l-.7-2v-.1c-.1 0-.2.1-.3.2 0 .1-.1.3-.1.5l-.6 1.7c-.1.2-.2.3-.3.3h.8c-.1 0-.3 0-.3-.2 0-.1 0-.2.1-.3l.1-.4h.9l.2.5c0 .1.1.2.1.3 0 .1-.2.1-.3.1h1c-.4 0-.5-.1-.5-.2zm-1.6-.9l.4-1.1.4 1.1H37zm.4-1.1l-.4 1.1h.7l-.3-1.1zm-.3 1.1l.3-1 .3 1h-.6zm3.9.5c0 .1-.1.2-.1.3-.1.1-.2.2-.4.2H40c-.1 0-.2-.1-.2-.2v-2c0-.2.1-.2.2-.2h.1v-.1h-1.2v.1h.1c.1 0 .3 0 .3.2v2c0 .2-.1.2-.3.2v.1h2c0-.2.1-.4.1-.6H41zm0 .7h-2V32h.1c.1 0 .3 0 .3-.3v-1.9c0-.2-.2-.2-.3-.2H39v-.1h1.2v.1h-.1c-.1 0-.3 0-.3.2v2c0 .2.1.2.2.2h.5c.2 0 .3-.1.4-.2.1-.1.1-.2.1-.3h.1c0 .1 0 .3-.1.6zm.1-2.8c-.2 0-.4.2-.4.4s.2.4.4.4.4-.2.4-.4-.2-.4-.4-.4zm0 .7c-.2 0-.3-.2-.3-.3 0-.2.1-.3.3-.3.2 0 .3.2.3.3 0 .2-.1.3-.3.3zm0-.3c.1 0 .1-.1.1-.1 0-.1-.1-.1-.1-.1h-.2c.1 0 .1 0 .1.1v.3h-.1.2-.1v-.1l.1-.1c0 .1 0 .2.1.2h.1l-.2-.2zm0 0l-.1-.2s.1 0 .1.1c.1.1 0 .1 0 .1zm-2.5 2.1c0-.1-.1-.3-.1-.4l-.7-2v-.1c-.1 0-.2.1-.3.2 0 .2-.1.3-.2.5l-.6 1.7c-.1.2-.2.2-.3.2v.1h.9v-.1H37c-.1 0-.3 0-.3-.1s0-.2.1-.3l.1-.4h.8l.1.4c0 .1.1.2.1.3 0 .1-.1.1-.2.1h-.1v.1h1.1v-.1l-.1-.1zm.3.3h-1.1V32c.1 0 .2 0 .2-.1 0 0 0-.2-.1-.3l-.2-.4H37l-.1.4c0 .1-.1.2-.1.3 0 .1.2.1.3.1v.1h-.9V32c.1 0 .3-.1.3-.2l.6-1.7c0-.1.1-.3.1-.5.1 0 .3-.1.3-.2v.1l.7 2c0 .1.1.3.1.4 0 .1.1.2.2.2zm-7.3-2.8c-.8 0-1.4.6-1.4 1.4 0 .8.6 1.4 1.4 1.4.8 0 1.5-.6 1.5-1.5 0-.8-.7-1.3-1.5-1.3zm0 2.8c-.8 0-1.4-.5-1.4-1.4 0-.8.6-1.4 1.4-1.4.8 0 1.5.5 1.5 1.3 0 .9-.6 1.5-1.5 1.5zm0-2.7c-.8 0-1.4.6-1.4 1.4 0 .8.6 1.3 1.4 1.3.8 0 1.4-.6 1.4-1.4.1-.8-.6-1.3-1.4-1.3zm.1 2.6c-.6 0-.9-.7-.9-1.3 0-.5.2-1.1.9-1.1.6 0 .9.7.9 1.2s-.2 1.2-.9 1.2zm-.1-2.5c-.7 0-.9.6-.9 1.1 0 .7.3 1.3.9 1.3.7 0 .9-.6.9-1.2.1-.5-.2-1.2-.9-1.2zm.1 2.4c-.6 0-.9-.6-.9-1.3 0-.5.2-1.1.8-1.1.6 0 .9.7.9 1.2 0 .6-.1 1.2-.8 1.2zm4.1-2.5h.5v.1c-.2 0-.4 0-.4.5v2.1h-.1l-2-2.2v1.6c0 .3.1.5.4.5h.1-1c.3 0 .4-.2.4-.5v-1.6c0-.2-.2-.4-.4-.4v-.1h.7l1.7 1.9v-1.4c0-.3-.2-.4-.3-.4h-.1v-.1h.5zm.5.1v-.1h-1v.1h.1c.1 0 .3 0 .3.3v1.4L34 29.4h-.8v.1h.1c.2 0 .3.1.3.3v1.6c0 .3-.1.5-.3.5h-.1v.1h1v-.1h-.1c-.3 0-.3-.1-.3-.4V30l1.9 2.1h.2V30c0-.4.1-.5.4-.5zm-.5.5v2.1h-.1l-2-2.2v1.6c0 .3.1.4.4.4h.1v.1h-1v-.1h.1c.3 0 .3-.2.3-.5v-1.6c0-.2-.2-.3-.3-.3v-.1h.7l1.7 1.9v-1.4c0-.3-.2-.4-.3-.4h-.1v-.1h1v.1h-.1c-.2 0-.4 0-.4.5zm-.2 1.3zm-20.1-2c0 .1-.1.1-.2.1h-2c-.1 0-.2 0-.2-.1H13v.6h.1c.1-.3.1-.3.3-.3h.6v2c0 .3-.1.3-.3.3h-.1v.1h1.2v-.1h-.1c-.2 0-.3 0-.3-.3v-2h.6c.2 0 .3.2.3.3h.1v-.6h.1zm.1.3v.3h-.1c0-.1 0-.4-.3-.4h-.6v2c0 .3.1.3.3.3h.1v.1h-1.2v-.1h.1c.2 0 .3 0 .3-.3v-2h-.6c-.3 0-.3.1-.4.3H13v-.6h.1c0 .1.1.1.2.1h2c.1 0 .2 0 .2-.1h.1v.4zm-3.3 1.7zm10.3-5.5v1.6c0 .2.1.2.3.2h.4v.2h-1.8v-.2h.2c.2 0 .3 0 .3-.2v-2c0-.2-.3-.3-.4-.3V25c.5-.2.8-.4.9-.4 0 0 .1 0 .1.1v.6c.2-.3.5-.7.9-.7.2 0 .4.1.4.4 0 .2-.1.4-.3.4-.2 0-.2-.2-.5-.2-.1.1-.5.2-.5.6zm3 1.5c0-.8-1.5-.6-1.5-1.7 0-.4.3-.9 1.1-.9.2 0 .5.1.8.2v.7h-.2c-.1-.4-.3-.7-.8-.7-.3 0-.5.2-.5.5 0 .8 1.6.6 1.6 1.7 0 .5-.4 1-1.2 1-.3 0-.6-.1-.9-.2l-.1-.8h.1c.1.5.4.9.9.9.6-.2.7-.5.7-.7zM9.1 29.4h-.6v.1h.1c.1 0 .3 0 .3.2v2c0 .2-.1.2-.3.2h-.1v.1h1.2v-.1h-.1c-.1 0-.3 0-.3-.2v-2c0-.2.1-.2.3-.2h.1v-.1h-.6zm.6.1c-.2 0-.3 0-.3.2v2c0 .2.1.2.3.2h.1v.1H8.6v-.1h.1c.1 0 .3 0 .3-.2v-2c0-.2-.1-.2-.3-.2h-.2v-.1h1.2v.1zm2.7-.1h.5v.1c-.2 0-.4 0-.4.5v2.1h-.1l-2-2.2v1.6c0 .3.1.5.4.5h-1c.3 0 .4-.2.4-.5v-1.6c0-.2-.2-.4-.4-.4v-.1h.7l1.7 1.9v-1.4c0-.3-.2-.4-.3-.4h-.1v-.1h.6zm-3.3 0h.6v.1c-.1 0-.3 0-.3.2v2c0 .2.2.2.3.2v.1H8.6c.1 0 .3 0 .3-.2v-2c0-.2-.2-.2-.3-.2v-.1c.1-.1.3-.1.5-.1zM21.3 26c.1-.1.1-.1.1-.2 0-.7-.6-1.1-1.2-1.1-.5 0-1.4.4-1.4 1.8 0 .4.2 1.5 1.3 1.5.6 0 1-.4 1.3-.8l-.1-.1c-.3.3-.6.5-.9.5-.6 0-1-.5-1-1.2V26h1.9zm-1.2-1.1c.4 0 .6.3.6.6 0 .1 0 .2-.2.2h-1.2c.1-.5.4-.8.8-.8zm-9.6 3c2.5 0 2.9-1.7 2.9-2.4 0-1.2-1-2.4-2.8-2.4h-2v.2c.3 0 .6 0 .6.6v3.4c0 .5-.2.5-.6.5v.2h.9c.3-.1.6-.1 1-.1zm-.7-4.6h.5c1.3 0 2.2.9 2.2 2.2 0 1-.5 2.2-2 2.2-.3 0-.7-.1-.7-.6v-3.8zm4.2 0c0-.2.2-.3.3-.3.2 0 .3.2.3.3 0 .2-.2.4-.3.4-.1-.1-.3-.2-.3-.4zm19.2 4.2v-3.9c0-.5-.1-.5-.4-.5V23c.3-.1.6-.2.7-.3.1 0 .1-.1.2-.1 0 0 .1 0 .1.1v4.8c0 .2.2.2.3.2h.1v.2h-1.5v-.2h.1c.3 0 .4 0 .4-.2zm-18.9.4h-.8v-.2h.1c.2 0 .3 0 .3-.2v-1.9c0-.3-.1-.3-.4-.5V25c.3-.1.7-.2.7-.3h.1s.1 0 .1.1v2.7c0 .2.2.2.3.2h.1v.2h-.5zm23.8-4.3v3c0 .4 0 .8-.1 1.2l.1.1.2-.2c.2.1.5.2 1 .2 1 0 1.7-.9 1.7-1.8 0-.8-.5-1.5-1.3-1.5-.4 0-.8.3-1 .5v-2.5c0-.1 0-.1-.1-.1 0 0-.1 0-.2.1s-.4.2-.7.3v.1c.3.1.4.1.4.6zm.5 1.8c.2-.2.4-.3.7-.3.5 0 1.1.6 1.1 1.4 0 .6-.3 1.4-1.1 1.4-.5 0-.7-.4-.7-.7v-1.8zm-20.8 6v.6h-2c.1 0 .3 0 .3-.2v-2c0-.2-.2-.2-.3-.2v-.1h1.9v.6h-.1c0-.2-.1-.4-.5-.4h-.5v1h.4c.2 0 .3-.1.3-.3h.1v.8h-.1c0-.2 0-.4-.3-.4h-.5v.9c0 .3.2.3.5.3.5-.1.7-.1.8-.6zm17.4-4.6c0 .2 0 .8.6.8.2 0 .6-.2.8-.4v-1.9c0-.1-.3-.2-.6-.3v-.1c.6 0 1-.1 1.1-.1.1 0 .1 0 .1.1v2.6c0 .1.1.1.2.1h.3v.1c-.3 0-.9.2-1 .2v-.6c-.4.3-.7.6-1.2.6-.4 0-.8-.2-.8-.8v-1.8c0-.2 0-.4-.4-.4v-.1h.9c.1 0 .1 0 .1.2v1.8zm-19.7 2.5v.6h-.1c0-.1 0-.4-.3-.4h-.6v2c0 .3.1.3.3.3h.1v.2h-1.2.1c.2 0 .3 0 .3-.3v-2h-.6c-.3 0-.3.1-.4.3H13v-.6h.1c0 .1.1.1.2.1h2c.1-.1.2-.1.2-.2zm-3.1.1h-.5v.1h.1c.1 0 .3 0 .3.3v1.4l-1.7-1.9h-.8v.1h.1c.2 0 .3.1.3.3v1.6c0 .3-.1.5-.3.5h-.1v.1h1v-.1h-.1c-.3 0-.3-.1-.3-.4V30l1.9 2.1h.2V30c0-.5.2-.5.3-.5h.1v-.1h-.5zm.5.1c-.2 0-.4 0-.4.5v2.1h-.1l-2-2.2v1.6c0 .3.1.4.4.4h.1v.1h-1v-.1h.1c.3 0 .3-.2.3-.5v-1.6c0-.2-.2-.3-.3-.3v-.1h.7l1.7 1.9v-1.4c0-.3-.2-.4-.3-.4H12v-.1h1v.1z"/>
    <path class="cst1" d="M24.6 8.6v8.8c1.8-.7 3-2.4 3-4.4.1-2-1.2-3.7-3-4.4zM18.2 13c0 2 1.3 3.7 3 4.4V8.6c-1.7.7-3 2.4-3 4.4z"/>
    <path class="cst1" d="M26.8 4.9H23c-4.5 0-8.2 3.4-8.2 8.2 0 4.4 3.7 8.1 8.2 8.1h3.8c4.5 0 8.5-3.6 8.5-8.1 0-4.9-4.1-8.2-8.5-8.2zM23 20.5c-4.1 0-7.5-3.3-7.5-7.5 0-4.1 3.3-7.5 7.5-7.5 4.1 0 7.5 3.3 7.5 7.5-.1 4.1-3.4 7.5-7.5 7.5z"/>
  </svg>
  <svg version="1" width="40" height="30" viewBox="0 0 50 37" id="elo" y="30" xmlns="http://www.w3.org/2000/svg" style="" transform="matrix(1.294853925704956, 0, 0, 1.2431812286376953, -0.5955629944801328, 18.23888397216797)">
    <title>Artboard 9</title>
    <path d="M25 30.5c-6.7 0-12.1-5.5-12-12.2.1-6.7 5.6-11.9 12.2-11.8 6.6.1 11.9 5.5 11.8 12.1-.1 6.6-5.4 11.9-12 11.9zm-1.6-12.4c-.2-1.3-1.5-2.5-2.9-2.8-1.7-.3-3.1.6-3.8 1.9-.7 1.3-.5 2.9.2 3.7 2.1-.9 4.3-1.8 6.5-2.8zm.5-4.4v7.2c0 .5.2.8.7.9.4.2.8.3 1.2.5.1 0 .1 0 .2.1.2-.4.3-.9.5-1.3-.1 0-.2-.1-.2-.1-.2-.1-.5-.2-.7-.3-.3-.1-.3-.1-.3-.4v-6.5H25c-.4-.1-.7-.1-1.1-.1zm9.5 6.7c.7-1.2.4-3.3-1.2-4.5-1.6-1.1-3.6-.7-4.5.3.3.4.7.7 1 1.1.9-.6 1.7-.7 2.6-.2.9.6 1.1 1.5.8 2.5.5.3.9.5 1.3.8zm-1.7.1c-.8.6-1.7.8-2.6.2-1-.6-1.2-1.5-.8-2.6-.4-.2-.9-.5-1.3-.7-.5 1.1-.5 2.2.1 3.2.7 1.3 1.8 1.9 3.2 2 .9 0 2.2-.5 2.4-1-.4-.4-.7-.8-1-1.1zM17.9 22c1.3.9 3.4.9 4.6-.5l-1.1-1.1c-.5.3-.9.5-1.3.6-.5.1-.9-.1-1.3-.3-.4.5-.7.9-.9 1.3z"/>
    <path d="M17.8 19.2c-.1-.9.4-1.8 1.2-2.1.8-.4 1.9-.2 2.5.5-1.3.5-2.5 1-3.7 1.6z"/>
  </svg>
  <svg id="hipercard" data-name="Layer 1" width="40" height="30" viewBox="0 0 50 37" x="40" y="30" xmlns="http://www.w3.org/2000/svg" style="" transform="matrix(1.294853925704956, 0, 0, 1.2431812286376953, 14.147131025791168, 18.23888397216797)">
    <defs>
      <style>.ecls-1,.ecls-2{fill:#991915;fill-rule:evenodd}.ecls-2{fill:#fff}</style>
    </defs>
    <title>Artboard 9 copy 4</title>
    <path id="efundo" class="ecls-1" d="M15.88 9.5h-4.32c-1.91.09-3.47.86-3.92 2.44-.23.83-.36 1.74-.55 2.59-.93 4.36-1.76 8.84-2.66 13.11h33.65c2.6 0 4.39-.55 4.87-2.61.22-1 .44-2 .65-3.1.84-4.11 1.67-8.21 2.53-12.44z"/>
    <path id="ehipercard" class="ecls-2" d="M15.55 15.95c.18-.12.41-.69.15-.93a.5.5 0 0 0-.42-.06.51.51 0 0 0-.36.19c-.11.16-.22.63 0 .8s.51.05.63 0zM13 15c-.13.84-.28 1.66-.42 2.49h-2.8c.17-.81.29-1.66.46-2.47h-1c-.36 2.05-.69 4.14-1.1 6.15h1c.16-1 .31-2.08.53-3.06a25.19 25.19 0 0 1 2.78 0c-.17 1-.39 2-.55 3h1c.33-2.08.68-4.15 1.1-6.15zm14.61 1.77a1.39 1.39 0 0 0-1.73.74c.07-.23.09-.5.15-.74h-.8c-.2 1.52-.48 2.94-.76 4.38h.91a17.23 17.23 0 0 1 .46-2.82 1.26 1.26 0 0 1 1.67-.91c-.02-.21.05-.42.07-.63zm.51 3.35a2.21 2.21 0 0 1-.12-.82 3 3 0 0 1 .61-1.69 2.22 2.22 0 0 1 2.15-.13c0-.25.07-.47.11-.72a3.43 3.43 0 0 0-3 .57 3.6 3.6 0 0 0-.72 3c.33 1.07 1.79 1.13 3 .72.05-.21.08-.45.13-.67-.67.33-1.9.51-2.19-.24zm10.18-3.33a1.38 1.38 0 0 0-1.73.67c.07-.21.08-.48.15-.7h-.8q-.32 2.26-.78 4.38H36a9.92 9.92 0 0 1 .21-1.58c.19-1.22.48-2.55 1.9-2.15.08-.17.1-.41.16-.6zm-23.65 0v.06c-.2 1.49-.47 2.92-.76 4.32h.91c.22-1.5.47-3 .78-4.38zm8-.08a2.37 2.37 0 0 0-1.6.65 3.66 3.66 0 0 0-.82 2.64c.16 1.46 2 1.41 3.44 1.05 0-.26.09-.48.13-.72a2.89 2.89 0 0 1-2.26.15c-.47-.29-.47-1-.32-1.69h3a3.12 3.12 0 0 0 .08-1.41c-.23-.57-.97-.73-1.71-.67zm.86 1.6h-2.19a1.26 1.26 0 0 1 1.2-1.05c.66-.03 1.12.24.93 1.05zm-4.3-1.52a2.39 2.39 0 0 0-2.11.38c0-.14.06-.24.06-.38h-.78c-.32 2.16-.71 4.26-1.12 6.34h.91c.13-.81.22-1.67.4-2.42.21.8 1.56.65 2.13.34 1.12-.64 2.03-3.66.45-4.26zm-.72 3.56c-.48.51-1.68.51-1.77-.36a4.3 4.3 0 0 1 .17-1.16c.07-.39.12-.77.19-1.12.48-.58 1.88-.65 2 .32a3.22 3.22 0 0 1-.65 2.32zm23.15-5.45c-.08.68-.18 1.34-.32 2-2.22-.7-3.59.93-3.56 3a1.59 1.59 0 0 0 .32 1.05 2.05 2.05 0 0 0 2.23.19 1.58 1.58 0 0 0 .32-.32c.06-.07.15-.27.17-.21a4.71 4.71 0 0 0-.08.65h.82a57.41 57.41 0 0 1 1-6.28zm-2 5.8c-.61 0-.91-.36-.93-1 0-1.1.46-2.31 1.43-2.42a2.38 2.38 0 0 1 1.12.17c-.33 1.23-.26 3.21-1.64 3.24zm-7.82-3.9c0 .25-.11.48-.17.72.53-.13 2.2-.55 2.36.17a1.25 1.25 0 0 1-.11.67c-1.51-.14-2.73.11-3.06 1.18a1.33 1.33 0 0 0 .48 1.62 2 2 0 0 0 2.34-.65 2.75 2.75 0 0 0-.06.67h.78a12.09 12.09 0 0 1 .23-2 8 8 0 0 0 .25-1.64c-.07-1.19-1.99-.78-3.06-.75zm1.48 3.54c-.47.46-1.78.59-1.64-.51.11-.91 1.1-1.1 2.17-1a2.7 2.7 0 0 1-.56 1.5z"/>
  </svg>
  <svg id="mastercard" data-name="Layer 1" width="40" height="30" viewBox="0 0 50 37" x="80" xmlns="http://www.w3.org/2000/svg" style="" transform="matrix(1.294853925704956, 0, 0, 1.2431812286376953, 105.17096710205078, 58.905213832855225)">
    <defs>
      <style>.fcls-1{fill:none}.fcls-2{fill:#ff5f00}.fcls-3{fill:#eb001b}.fcls-4{fill:#f79e1b}</style>
    </defs>
    <title>Artboard 9 copy</title>
    <path class="fcls-1" d="M2.67.84h44.79v36.74H2.67z"/>
    <path id="f_Compound_Path_" data-name="Compound Path" d="M13.76 33v-1.87a1.09 1.09 0 0 0-1-1.16h-.13a1.13 1.13 0 0 0-1 .52 1.07 1.07 0 0 0-1-.52 1 1 0 0 0-.85.43V30h-.64v3h.64v-1.66a.68.68 0 0 1 .58-.76h.13c.42 0 .63.27.63.77V33h.64v-1.66a.69.69 0 0 1 .6-.77h.11c.43 0 .64.27.64.77V33zm9.48-3h-1v-.88h-.67V30H21v.58h.59V32c0 .68.26 1.08 1 1.08a1.49 1.49 0 0 0 .79-.23l-.18-.54a1.17 1.17 0 0 1-.56.16c-.32 0-.42-.2-.42-.49v-1.36h1zm5.41 0a.86.86 0 0 0-.77.43v-.35h-.63V33h.63v-1.68c0-.48.21-.75.62-.75a1 1 0 0 1 .4.07l.2-.6a1.36 1.36 0 0 0-.45-.08zm-8.18.31a2.18 2.18 0 0 0-1.19-.31c-.74 0-1.21.35-1.21.93s.35.77 1 .86h.3c.35 0 .51.14.51.31s-.23.35-.67.35a1.55 1.55 0 0 1-1-.31l-.3.49a2.1 2.1 0 0 0 1.26.38c.84 0 1.33-.4 1.33-1s-.38-.78-1-.87h-.3c-.27 0-.49-.09-.49-.29s.21-.34.56-.34a1.88 1.88 0 0 1 .91.25zm17-.31a.86.86 0 0 0-.77.43v-.35h-.63V33h.63v-1.68c0-.48.21-.75.62-.75a1 1 0 0 1 .4.07l.2-.6a1.36 1.36 0 0 0-.45-.08zm-8.18 1.5A1.47 1.47 0 0 0 30.7 33h.15a1.53 1.53 0 0 0 1-.35l-.31-.51a1.28 1.28 0 0 1-.76.26.94.94 0 0 1 0-1.87 1.28 1.28 0 0 1 .76.26l.31-.51a1.53 1.53 0 0 0-1-.35 1.47 1.47 0 0 0-1.56 1.53zm5.94 0V30h-.63v.35a1.11 1.11 0 0 0-.92-.43 1.53 1.53 0 1 0 0 3.06 1.11 1.11 0 0 0 .92-.43v.35h.63zm-2.36 0a.88.88 0 1 1 .88.93.87.87 0 0 1-.88-.86v-.07zM25.21 30a1.53 1.53 0 0 0 0 3.06 1.77 1.77 0 0 0 1.2-.41l-.31-.47a1.39 1.39 0 0 1-.85.31.81.81 0 0 1-.87-.71h2.17v-.24A1.4 1.4 0 0 0 25.29 30h-.08zm0 .57a.72.72 0 0 1 .74.7h-1.51a.75.75 0 0 1 .77-.71zm15.92 1v-2.7h-.63v1.53a1.11 1.11 0 0 0-.92-.43 1.53 1.53 0 0 0 0 3.06 1.11 1.11 0 0 0 .92-.43v.4h.63zm-2.36 0a.88.88 0 1 1 .88.93.87.87 0 0 1-.88-.86v-.1zm-21.43 0V30h-.63v.35a1.11 1.11 0 0 0-.92-.43 1.53 1.53 0 0 0 0 3.06 1.11 1.11 0 0 0 .92-.43v.35h.63zm-2.36 0a.88.88 0 1 1 .88.93.87.87 0 0 1-.88-1z"/>
    <g id="f_Group_" data-name="Group">
      <path class="fcls-2" d="M20.27 7.81h9.61v17.27h-9.61z"/>
      <path id="f_Path_" data-name="Path" class="fcls-3" d="M20.87 16.45a11 11 0 0 1 4.2-8.64 11 11 0 1 0 0 17.27 11 11 0 0 1-4.2-8.63z"/>
      <path class="fcls-4" d="M42.85 16.45a11 11 0 0 1-17.77 8.63 11 11 0 0 0 0-17.27 11 11 0 0 1 17.77 8.64z"/>
    </g>
  </svg>
  <svg width="40" height="30" viewBox="0 0 40 30" fill="none" id="paypal" x="80" y="30" xmlns="http://www.w3.org/2000/svg" style="" transform="matrix(1.294853925704956, 0, 0, 1.2431812286376953, 23.111857652664185, 14.542472839355469)">
    <path d="M15.964 12.751h-1.77a.246.246 0 0 0-.243.209l-.716 4.549a.15.15 0 0 0 .034.12.151.151 0 0 0 .112.052h.846c.12 0 .224-.089.242-.21l.193-1.227a.25.25 0 0 1 .244-.209h.56c1.166 0 1.84-.565 2.015-1.685.08-.49.003-.877-.226-1.146-.25-.296-.697-.453-1.29-.453zm.204 1.662c-.095.637-.582.637-1.051.637h-.266l.187-1.189a.149.149 0 0 1 .145-.125h.123c.319 0 .622 0 .777.182.094.109.122.271.085.495zm5.09-.02h-.847a.148.148 0 0 0-.147.124l-.037.237-.06-.085c-.183-.268-.592-.356-1-.356-.938 0-1.738.71-1.895 1.709-.08.497.035.973.316 1.304.26.306.629.433 1.069.433.754 0 1.174-.486 1.174-.486l-.039.236a.144.144 0 0 0 .034.118.146.146 0 0 0 .112.052h.764a.243.243 0 0 0 .242-.207l.459-2.908a.143.143 0 0 0-.032-.119.148.148 0 0 0-.112-.052zm-1.182 1.654a.946.946 0 0 1-.956.811c-.248 0-.443-.08-.57-.23-.126-.148-.173-.36-.132-.596a.948.948 0 0 1 .95-.818c.24 0 .436.08.565.231.128.152.18.366.143.602zm5.698-1.654h-.851a.246.246 0 0 0-.204.107l-1.176 1.736-.498-1.667a.245.245 0 0 0-.236-.176h-.838a.15.15 0 0 0-.12.06.157.157 0 0 0-.02.136l.94 2.759-.884 1.25a.143.143 0 0 0-.01.151c.026.05.076.08.13.08h.852c.08 0 .156-.038.202-.105l2.835-4.1a.143.143 0 0 0 .008-.152.146.146 0 0 0-.13-.079z" fill="#253B80"/>
    <path d="M28.595 12.751h-1.77a.246.246 0 0 0-.243.209l-.716 4.549a.15.15 0 0 0 .034.12.152.152 0 0 0 .112.052h.908a.176.176 0 0 0 .17-.147l.203-1.29a.25.25 0 0 1 .244-.209h.56c1.165 0 1.84-.565 2.015-1.685.08-.49.003-.877-.226-1.146-.25-.296-.697-.453-1.29-.453zm.206 1.662c-.097.637-.582.637-1.052.637h-.267l.187-1.189a.149.149 0 0 1 .145-.125h.124c.32 0 .62 0 .776.182.094.109.122.271.087.495zm5.089-.02h-.848a.143.143 0 0 0-.146.124l-.038.237-.059-.085c-.184-.268-.593-.356-1.001-.356-.937 0-1.738.71-1.893 1.709-.08.497.033.973.316 1.304.259.306.627.433 1.067.433.755 0 1.174-.486 1.174-.486l-.037.236a.144.144 0 0 0 .033.118.146.146 0 0 0 .112.052h.764c.12 0 .224-.088.243-.207l.458-2.908a.149.149 0 0 0-.033-.12.152.152 0 0 0-.112-.05zm-1.183 1.654a.946.946 0 0 1-.956.811c-.246 0-.443-.08-.57-.23-.126-.148-.173-.36-.133-.596a.95.95 0 0 1 .95-.818c.241 0 .437.08.565.231.13.152.181.366.144.602zm2.18-3.17l-.725 4.632a.15.15 0 0 0 .034.12.151.151 0 0 0 .112.052h.73c.12 0 .225-.089.243-.21l.717-4.55a.147.147 0 0 0-.145-.17h-.818a.15.15 0 0 0-.147.125z" fill="#179BD7"/>
    <path d="M5.88 18.563l.135-.86-.301-.008H4.272l1.002-6.36a.081.081 0 0 1 .082-.07h2.428c.806 0 1.363.168 1.654.5.136.156.222.318.264.497a1.8 1.8 0 0 1 .002.686l-.003.02v.176l.137.078a.938.938 0 0 1 .276.21c.115.133.19.302.222.502.034.208.022.452-.032.731-.062.32-.162.597-.297.825-.12.204-.281.381-.474.52a1.96 1.96 0 0 1-.635.287c-.236.06-.503.092-.796.092h-.189a.575.575 0 0 0-.37.136.58.58 0 0 0-.192.344l-.015.079-.24 1.518-.01.056c-.002.018-.007.026-.014.033a.045.045 0 0 1-.025.008H5.88z" fill="#253B80"/>
    <path d="M9.968 12.99c-.009.045-.017.094-.025.142-.321 1.648-1.417 2.218-2.816 2.218h-.713a.347.347 0 0 0-.343.292l-.364 2.32-.102.657a.188.188 0 0 0 .04.147c.035.04.085.064.139.064h1.264a.307.307 0 0 0 .301-.258l.012-.063.237-1.514.015-.083a.305.305 0 0 1 .301-.256h.19c1.223 0 2.182-.498 2.462-1.94.117-.602.057-1.105-.252-1.46a1.22 1.22 0 0 0-.346-.266z" fill="#179BD7"/>
    <path d="M9.633 12.854a2.764 2.764 0 0 0-.312-.068 3.942 3.942 0 0 0-.628-.046H6.79a.302.302 0 0 0-.3.258l-.406 2.569-.012.075a.347.347 0 0 1 .343-.293h.712c1.4 0 2.495-.57 2.817-2.217.01-.049.016-.097.025-.143a1.675 1.675 0 0 0-.265-.112l-.072-.023z" fill="#222D65"/>
    <path d="M6.49 12.998a.3.3 0 0 1 .299-.257h1.903c.226 0 .436.015.629.045.13.02.259.052.383.092.095.032.182.069.264.112.095-.61-.002-1.025-.33-1.4-.363-.413-1.016-.59-1.853-.59H5.357a.344.344 0 0 0-.342.294L4.003 17.72a.208.208 0 0 0 .206.243h1.498l.376-2.395.406-2.569z" fill="#253B80"/>
  </svg>
  <svg width="40" height="30" viewBox="0 0 40 30" fill="none" id="pix" y="60" xmlns="http://www.w3.org/2000/svg" style="" transform="matrix(1.294853925704956, 0, 0, 1.2431812286376953, -0.47645044326782227, 21.83791160583496)">
    <path d="M24.478 19.238a2.336 2.336 0 0 1-1.662-.688l-2.4-2.4a.456.456 0 0 0-.63 0l-2.409 2.409a2.336 2.336 0 0 1-1.662.688h-.473l3.04 3.039c.949.95 2.488.95 3.437 0l3.048-3.048h-.289zm-8.763-8.487c.628 0 1.218.245 1.662.688l2.409 2.41a.446.446 0 0 0 .63 0l2.4-2.4a2.336 2.336 0 0 1 1.662-.689h.29l-3.049-3.048a2.43 2.43 0 0 0-3.438 0l-3.039 3.04h.473z" fill="#32BCAD"/>
    <path d="M27.288 13.278l-1.842-1.842a.35.35 0 0 1-.13.026h-.838c-.433 0-.857.176-1.163.482l-2.4 2.4a1.149 1.149 0 0 1-1.629 0l-2.408-2.409a1.655 1.655 0 0 0-1.163-.481h-1.03a.35.35 0 0 1-.124-.025l-1.85 1.849a2.43 2.43 0 0 0 0 3.438l1.85 1.849a.35.35 0 0 1 .124-.025h1.03c.433 0 .857-.176 1.163-.482l2.408-2.409a1.18 1.18 0 0 1 1.63 0l2.4 2.4c.305.306.729.482 1.162.482h.837c.047 0 .09.01.131.026l1.842-1.841a2.43 2.43 0 0 0 0-3.438z" fill="#32BCAD"/>
  </svg>
  <svg id="visa" data-name="Layer 1" width="40" height="30" viewBox="0 0 50 37" x="40" y="60" xmlns="http://www.w3.org/2000/svg" style="" transform="matrix(1.294853925704956, 0, 0, 1.2431812286376953, 14.147131025791168, 27.35818099975586)">
    <defs>
      <style>.icls-1{fill:#005098}.icls-2{fill:#f6a500}</style>
    </defs>
    <title>Artboard 9</title>
    <path class="icls-1" d="M18.95 24.57l2.01-11.76h3.2l-2 11.76h-3.21zM33.79 13.1a8.28 8.28 0 0 0-2.87-.49c-3.17 0-5.4 1.6-5.42 3.88 0 1.69 1.59 2.63 2.81 3.2s1.69.94 1.69 1.45c0 .79-1 1.15-1.92 1.15a6.72 6.72 0 0 1-3-.62l-.41-.19-.45 2.63a10.15 10.15 0 0 0 3.57.63c3.37 0 5.56-1.58 5.58-4 0-1.34-.84-2.36-2.69-3.2-1.12-.54-1.81-.91-1.8-1.46s.58-1 1.84-1a5.91 5.91 0 0 1 2.4.45l.29.14.43-2.55m8.16-.3h-2.46a1.6 1.6 0 0 0-1.68 1l-4.77 10.76h3.37l.68-1.77h4.11c.1.41.39 1.76.39 1.76h3L42 12.82m-4 7.58l1.28-3.29s.26-.68.43-1.12L40 17l.74 3.4zm-21.74-7.58l-3.14 8-.33-1.63a9.18 9.18 0 0 0-4.44-4.94l2.87 10.29h3.39l5-11.74h-3.4"/>
    <path class="icls-2" d="M10.21 12.81H5v.24c4 1 6.68 3.33 7.79 6.16l-1.12-5.41a1.34 1.34 0 0 0-1.45-1"/>
  </svg>
  <svg width="30" height="24" viewBox="0 0 30 24" id="wine--twitter" y="90" xmlns="http://www.w3.org/2000/svg">
    <defs>
      <style>.rcls-1{fill:#e43fa0;fill-rule:evenodd}</style>
    </defs>
  </svg>
</svg>